<svg width="220" height="165" xmlns="http://www.w3.org/2000/svg">
  <rect width="220" height="165" rx="12" fill="#0d1117"/>
  <text x="16" y="38" font-family="monospace" font-size="12" fill="#38bdf8" font-weight="600">Top Languages</text>
  <line x1="16" y1="50" x2="204" y2="50" stroke="#1e293b" stroke-width="1"/>
  
    <text x="16" y="63" font-family="monospace" font-size="11" fill="#94a3b8">Python</text>
    <rect x="90" y="52" width="53" height="14" rx="3" fill="#38bdf8"/>
    <text x="147" y="63" font-family="monospace" font-size="10" fill="#38bdf8">48.8%</text>
    
    <text x="16" y="87" font-family="monospace" font-size="11" fill="#94a3b8">JavaScript</text>
    <rect x="90" y="76" width="49" height="14" rx="3" fill="#a78bfa"/>
    <text x="143" y="87" font-family="monospace" font-size="10" fill="#a78bfa">45.4%</text>
    
    <text x="16" y="111" font-family="monospace" font-size="11" fill="#94a3b8">CSS</text>
    <rect x="90" y="100" width="5" height="14" rx="3" fill="#f472b6"/>
    <text x="99" y="111" font-family="monospace" font-size="10" fill="#f472b6">4.7%</text>
    
    <text x="16" y="135" font-family="monospace" font-size="11" fill="#94a3b8">HTML</text>
    <rect x="90" y="124" width="1" height="14" rx="3" fill="#34d399"/>
    <text x="95" y="135" font-family="monospace" font-size="10" fill="#34d399">1.0%</text>
    
    <text x="16" y="159" font-family="monospace" font-size="11" fill="#94a3b8">Verilog</text>
    <rect x="90" y="148" width="0" height="14" rx="3" fill="#fbbf24"/>
    <text x="94" y="159" font-family="monospace" font-size="10" fill="#fbbf24">0.0%</text>
    
    <text x="16" y="183" font-family="monospace" font-size="11" fill="#94a3b8">Batchfile</text>
    <rect x="90" y="172" width="0" height="14" rx="3" fill="#fb923c"/>
    <text x="94" y="183" font-family="monospace" font-size="10" fill="#fb923c">0.0%</text>
    
</svg>